<svg id="inst" xmlns="http://www.w3.org/2000/svg" width="18" height="18" viewBox="0 0 18 18">
  <metadata><?xpacket begin="﻿" id="W5M0MpCehiHzreSzNTczkc9d"?>
<x:xmpmeta xmlns:x="adobe:ns:meta/" x:xmptk="Adobe XMP Core 5.6-c138 79.159824, 2016/09/14-01:09:01        ">
   <rdf:RDF xmlns:rdf="http://www.w3.org/1999/02/22-rdf-syntax-ns#">
      <rdf:Description rdf:about=""/>
   </rdf:RDF>
</x:xmpmeta>
                                                                                                    
                                                                                                    
                                                                                                    
                                                                                                    
                                                                                                    
                                                                                                    
                                                                                                    
                                                                                                    
                                                                                                    
                                                                                                    
                                                                                                    
                                                                                                    
                                                                                                    
                                                                                                    
                                                                                                    
                                                                                                    
                                                                                                    
                                                                                                    
                                                                                                    
                                                                                                    
                           
<?xpacket end="w"?></metadata>
<defs>
    <style>
      .cls-1 {
        fill: #3a3a3a;
      }

      .cls-2 {
        fill: #fff;
        fill-rule: evenodd;
      }
    </style>
  </defs>
  <rect id="sbtn2" class="cls-1" width="18" height="18" rx="2" ry="2"/>
  <path id="inst-2" data-name="inst" class="cls-2" d="M1064.6,42.062h-5.23a4.364,4.364,0,0,0-4.37,4.365v5.238a4.364,4.364,0,0,0,4.37,4.365h5.23a4.37,4.37,0,0,0,4.37-4.365V46.428A4.37,4.37,0,0,0,1064.6,42.062Zm3.06,9.6a3.06,3.06,0,0,1-3.06,3.056h-5.23a3.06,3.06,0,0,1-3.06-3.056V46.428a3.06,3.06,0,0,1,3.06-3.056h5.23a3.06,3.06,0,0,1,3.06,3.056v5.238Zm-5.68-6.111a3.492,3.492,0,1,0,3.5,3.492A3.5,3.5,0,0,0,1061.98,45.555Zm0,5.675a2.183,2.183,0,1,1,2.19-2.183A2.185,2.185,0,0,1,1061.98,51.229Zm3.76-6.4a0.465,0.465,0,0,1,0,.931A0.465,0.465,0,1,1,1065.74,44.827Z" transform="translate(-1052.97 -39.969)"/>
</svg>