<svg xmlns="http://www.w3.org/2000/svg" width="264" height="150" viewBox="0 0 264 150">
  <metadata><?xpacket begin="﻿" id="W5M0MpCehiHzreSzNTczkc9d"?>
<x:xmpmeta xmlns:x="adobe:ns:meta/" x:xmptk="Adobe XMP Core 5.6-c138 79.159824, 2016/09/14-01:09:01        ">
   <rdf:RDF xmlns:rdf="http://www.w3.org/1999/02/22-rdf-syntax-ns#">
      <rdf:Description rdf:about=""/>
   </rdf:RDF>
</x:xmpmeta>
                                                                                                    
                                                                                                    
                                                                                                    
                                                                                                    
                                                                                                    
                                                                                                    
                                                                                                    
                                                                                                    
                                                                                                    
                                                                                                    
                                                                                                    
                                                                                                    
                                                                                                    
                                                                                                    
                                                                                                    
                                                                                                    
                                                                                                    
                                                                                                    
                                                                                                    
                                                                                                    
                           
<?xpacket end="w"?></metadata>
<defs>
    <style>
      .cls-1 {
        fill: #d7b56d;
      }

      .cls-1, .cls-2, .cls-3, .cls-4, .cls-6, .cls-7 {
        fill-rule: evenodd;
      }

      .cls-2 {
        fill: none;
        stroke: #d7b56d;
        stroke-width: 2px;
      }

      .cls-3 {
        fill: #212b49;
      }

      .cls-4 {
        fill: #f5e4be;
      }

      .cls-5 {
        fill: #009fe2;
      }

      .cls-6 {
        fill: #fff;
      }

      .cls-7 {
        fill: #3c3c3c;
      }
    </style>
  </defs>
  <path id="i-phone" class="cls-1" d="M89.678,11.991l-1.733-1.734A1.235,1.235,0,0,0,87.068,9.9a1.3,1.3,0,0,0-.921.384l-0.675.674A8.2,8.2,0,0,1,83.528,9.54,8.217,8.217,0,0,1,82.111,7.6l0.675-.675a1.275,1.275,0,0,0,.023-1.8L81.077,3.389A1.23,1.23,0,0,0,80.2,3.028a1.3,1.3,0,0,0-.905.368A3.711,3.711,0,0,0,78.12,5.535c-0.39,1.9.506,3.734,3.091,6.32,2.887,2.887,5.352,3.111,6.039,3.111a2.33,2.33,0,0,0,.252-0.011,2.86,2.86,0,0,0,2.181-1.193A1.312,1.312,0,0,0,89.678,11.991ZM88.86,13.24A1.92,1.92,0,0,1,87.274,14a1.571,1.571,0,0,1-.159.006c-0.589,0-2.71-.2-5.283-2.773-2.284-2.285-3.086-3.852-2.767-5.409a2.441,2.441,0,0,1,.749-1.513l0.021-.016,0.019-.019a0.536,0.536,0,0,1,.38-0.16,0.47,0.47,0,0,1,.337.137l1.411,1.5a0.474,0.474,0,0,1-.053.684l-0.638.575-0.012.013a0.584,0.584,0,0,0-.063.679,10.915,10.915,0,0,0,1.673,2.471,10.462,10.462,0,0,0,2.4,1.639,0.646,0.646,0,0,0,.309.082,0.57,0.57,0,0,0,.433-0.2l0.656-.624a0.532,0.532,0,0,1,.379-0.159,0.475,0.475,0,0,1,.337.136l1.5,1.442A0.561,0.561,0,0,1,88.86,13.24Z"/>
  <path id="i-point" class="cls-1" d="M119.5,5.044a2.446,2.446,0,1,0,2.443,2.446A2.447,2.447,0,0,0,119.5,5.044Zm0,4.015a1.57,1.57,0,1,1,1.569-1.57A1.571,1.571,0,0,1,119.5,9.058Zm0-6.008a4.443,4.443,0,0,0-4.436,4.439c0,1.412,1.183,3.515,1.888,4.643a20.229,20.229,0,0,0,1.4,1.989c0.708,0.867.962,0.94,1.144,0.94s0.424-.072,1.13-0.94a20.726,20.726,0,0,0,1.4-1.988c0.71-1.131,1.9-3.238,1.9-4.643A4.443,4.443,0,0,0,119.5,3.05Zm1.976,8.446a13.645,13.645,0,0,1-1.98,2.636,12.9,12.9,0,0,1-1.98-2.632A9.336,9.336,0,0,1,115.9,7.543a3.6,3.6,0,1,1,7.2,0A9.334,9.334,0,0,1,121.479,11.5Z"/>
  <path id="line" class="cls-2" d="M0.414,10.972s11.918,2.033,27.7-2.1c17.624-4.614,28.774-2.1,28.774-2.1"/>
  <path id="i-bell" class="cls-1" d="M37.968,68.005V66.011H21v-1h16.97V59.03a9.989,9.989,0,0,0-9.983-9.973H22.994v-1a2.995,2.995,0,0,0-5.99,0v1H12.013A9.989,9.989,0,0,0,2.031,59.03v5.984H19v1H2.031v1.994A2,2,0,0,1,.034,70v1.994h39.93V70A2,2,0,0,1,37.968,68.005ZM20,47.062a1,1,0,0,1,1,1v1H19v-1h0A1,1,0,0,1,20,47.062ZM4.028,63.019V59.03h0a7.991,7.991,0,0,1,7.986-7.978H27.986a7.991,7.991,0,0,1,7.986,7.978v3.989H4.028ZM3.491,70a3.957,3.957,0,0,0,.536-1.995H35.971A3.957,3.957,0,0,0,36.507,70H3.491ZM19,34.1h2v5.984H19V34.1Zm-8.178,3.384,4.234,4.23-1.412,1.41-4.234-4.23Zm-4.8,7.586h5.989v1.995H6.024V45.068Zm21.961,0h5.989v1.995H27.985V45.068Zm-1.632-1.944-1.412-1.41,4.235-4.23,1.412,1.41Z"/>
  <path id="i-date" class="cls-3" d="M262,20H248a2,2,0,0,1-2-2V4.031a2,2,0,0,1,2-2h1.025c0-.043-0.025-0.081-0.025-0.125V1.5a1.5,1.5,0,0,1,3,0V1.906c0,0.044-.021.082-0.025,0.125h6.05c0-.043-0.025-0.081-0.025-0.125V1.5a1.5,1.5,0,0,1,3,0V1.906c0,0.044-.022.082-0.025,0.125H262a2,2,0,0,1,2,2V18A2,2,0,0,1,262,20ZM252,7h-4V9.968h4V7Zm0,8h-4v2.969h4V15Zm5-8h-4V9.968h4V7Zm0,4h-4v2.969h4V11Zm0,4h-4v2.969h4V15Zm5-8h-4V9.968h4V7Zm0,4h-4v2.969h4V11Zm0,4h-4v2.969h4V15Z"/>
  <path id="i-food" class="cls-4" d="M36.584,109.8L36.7,109.91c-0.148.21-.621,0.879-1.181,1.653a5.993,5.993,0,0,1-3.242,1.925l0.206,0.206c-0.155.031-.3,0.054-0.47,0.1,0,0.716-.007,1.493,0,2.258L32,116.04v11.012h0.586s0.614,0.011,2.416.011v0.4l0,0v5.171s0,0.278,0,3.419h0v8.992a3.989,3.989,0,0,1-7.954.441c-0.017-6.219-.051-12.223-0.053-12.843L27,132.637v-5.585h3V114.04l-0.65-.649a6.017,6.017,0,0,1-4.113-4.113L25,109.044c0-2.708.006-6.474,0.006-8.441,0.729,0,1.38-.024,1.991-0.06v6.085h3v-6h2v6h3v-6h2v7A5.958,5.958,0,0,1,36.584,109.8ZM29,133.465v11.584a2,2,0,0,0,4,0v-12H29v0.414Zm0-4.413v2h4v-2H29Zm3-20.425H27.141a3.98,3.98,0,0,0,7.715,0H32Zm-21.512-7.9a6.246,6.246,0,0,1,1.457,1.339l-0.057.057a6.015,6.015,0,0,1,.678,1.289A9.48,9.48,0,0,1,13,105.843v0.371l0.02-.02a18.836,18.836,0,0,1-.2,3.025l-0.058.059a6.017,6.017,0,0,1-4.113,4.113L8,114.04v13.012h3L10.99,131.97,11,141.463v3.585a4,4,0,1,1-8,0v-8.909s0,1.168,0-3.5v-5.17l0,0V126.99c1.016,0.036.494,0.018,2.341,0.018l0.075,0.075L6,127.052V116.04l-0.011.011c0.008-.737,0-1.483,0-2.173-0.2-.053-0.364-0.081-0.539-0.116l0.275-.274a6,6,0,0,1-3.244-1.927l-0.035.035c-0.615-.853-1.115-1.56-1.178-1.651l0.146-.146A5.959,5.959,0,0,1,1,107.628v-2a5.989,5.989,0,0,1,9.469-4.884ZM5,145.049a2,2,0,0,0,4,0v-12H5v12Zm0-16v2H9v-2H5Zm2-27.423a4,4,0,0,0-4,4v2a4,4,0,0,0,8,0v-2A4,4,0,0,0,7,101.629Z"/>
  <path id="i-bus" class="cls-1" d="M137.247,57.072H137v6.012a1.49,1.49,0,0,1-.4,1.012,0.381,0.381,0,0,1,.024.115v1.113a0.655,0.655,0,0,1-.752.766h-1.879a0.654,0.654,0,0,1-.751-0.766V64.587h-8.453v0.737a0.654,0.654,0,0,1-.751.766h-1.879a0.641,0.641,0,0,1-.752-0.751V64.211a0.381,0.381,0,0,1,.024-0.115,1.49,1.49,0,0,1-.4-1.012V57.072h-0.283a0.752,0.752,0,0,1-.752-0.751V54.065a1.027,1.027,0,0,1,1.035-1.127V51.811a2.8,2.8,0,0,1,2.63-2.818h10.707a2.749,2.749,0,0,1,2.568,2.818L137,52.938s1-.21,1,1.127V56.32A0.751,0.751,0,0,1,137.247,57.072Zm-2.241,5.234V58.969H123V57h12.006V52.67a1.649,1.649,0,0,0-1.637-1.7h-8.683a1.7,1.7,0,0,0-1.7,1.7v9.636a0.68,0.68,0,0,0,.68.68h10.66a0.68,0.68,0,0,0,.68-0.68h0Zm-1.99-.2a1.094,1.094,0,1,1,1.093-1.094A1.093,1.093,0,0,1,133.016,62.109Zm-8,0a1.094,1.094,0,1,1,1.093-1.094A1.093,1.093,0,0,1,125.016,62.109Z"/>
  <path id="i-obus" class="cls-1" d="M92.247,57.071H92v6.012a1.492,1.492,0,0,1-.4,1.012,0.372,0.372,0,0,1,.023.115v1.112a0.655,0.655,0,0,1-.752.766H88.989a0.655,0.655,0,0,1-.751-0.766V64.586H80.785v0.737a0.655,0.655,0,0,1-.751.766H78.155a0.641,0.641,0,0,1-.751-0.752V64.211a0.372,0.372,0,0,1,.023-0.115,1.492,1.492,0,0,1-.4-1.012V57.071H76.745a0.752,0.752,0,0,1-.751-0.751V55.065a1.027,1.027,0,0,1,1.034-1.127V52.811a2.8,2.8,0,0,1,2.63-2.818h0.367l2-2.028,2.852,0.008-2.02,2.02H86.03l2.028-2.028,2.821,0.008-2.02,2.02h0.506a2.748,2.748,0,0,1,2.568,2.818L92,53.938s1-.21,1,1.127V56.32A0.752,0.752,0,0,1,92.247,57.071Zm-2.241,1.9H79V57H90.006V53.67a1.65,1.65,0,0,0-1.637-1.7H80.686a1.7,1.7,0,0,0-1.7,1.7v8.636a0.68,0.68,0,0,0,.68.68h9.66a0.68,0.68,0,0,0,.68-0.68V58.969Zm-1.99,3.14a1.094,1.094,0,1,1,1.094-1.093A1.093,1.093,0,0,1,88.016,62.109Zm-7,0a1.094,1.094,0,1,1,1.094-1.093A1.093,1.093,0,0,1,81.016,62.109Z"/>
  <path id="i-dialog" class="cls-1" d="M188.534,63.045h-9.345c-0.182,0-.331,0-0.456,0s-0.279,0-.336,0c-0.06.04-.207,0.174-0.348,0.3l-0.188.171-2.627,2.392a0.732,0.732,0,0,1-1.22-.528V59.1h0v-5.8h0V51.448a3.47,3.47,0,0,1,3.489-3.437h11.031a3.426,3.426,0,0,1,3.437,3.437v8.144A3.439,3.439,0,0,1,188.534,63.045Zm1.5-11.164a1.861,1.861,0,0,0-1.872-1.873h-10.3a1.9,1.9,0,0,0-1.92,1.873V63.006l1.343-1.213c0.062-.057.132-0.109,0.183-0.156A1.687,1.687,0,0,1,179.044,61c0.109,0,.239,0,0.4,0h8.724a1.873,1.873,0,0,0,1.872-1.888V51.881Zm-6.043,4.214a1.815,1.815,0,0,0-.5.518,0.7,0.7,0,0,1-.71.71h-0.006a0.707,0.707,0,0,1-.716-0.7A2.144,2.144,0,0,1,183.073,55a1.327,1.327,0,0,0,.591-0.7,0.708,0.708,0,0,0-1.416,0,0.716,0.716,0,0,1-1.432,0,2.14,2.14,0,0,1,4.28,0A2.392,2.392,0,0,1,183.994,56.095Zm-1.2,1.889a0.717,0.717,0,0,1,0,1.433,0.7,0.7,0,0,1-.7-0.713V58.7A0.7,0.7,0,0,1,182.8,57.983Z"/>
  <ellipse id="_." data-name="." class="cls-5" cx="94.359" cy="105.172" rx="1.672" ry="1.641"/>
  <path id="B" class="cls-6" d="M82.017,106.637V94.359a1.4,1.4,0,0,1,1.233-1.233c1.1-.077.27-0.019,0.27-0.019h3.527s3.566-.116,3.8,3.392A3.254,3.254,0,0,1,89.4,99.486a3.406,3.406,0,0,1,2,3.431c-0.039,2.891-3.1,3.748-4.24,3.729S82.017,106.637,82.017,106.637Zm2.6-8.057V96.133a0.8,0.8,0,0,1,.713-0.8H86.9a1.484,1.484,0,0,1,1.32,1.6,1.527,1.527,0,0,1-1.359,1.638Zm0,5.792v-2.786a0.822,0.822,0,0,1,.812-0.91h1.788a1.688,1.688,0,0,1,1.5,1.821,1.738,1.738,0,0,1-1.546,1.864C86.933,104.361,84.619,104.372,84.619,104.372Z"/>
  <path id="tadv" class="cls-6" d="M141.958,96.029H138.8a8.8,8.8,0,0,0-11.6,0h-3.158a6.889,6.889,0,0,1,1.008,1.69,4.356,4.356,0,0,0-1.008,2.786,4.468,4.468,0,0,0,8.062,2.663l0.941,1.813,0.862-1.8a4.467,4.467,0,0,0,8.051-2.675,4.356,4.356,0,0,0-1.008-2.786A6.889,6.889,0,0,1,141.958,96.029Zm-13.437,7.833a3.357,3.357,0,1,1,3.359-3.357A3.368,3.368,0,0,1,128.521,103.862Zm8.958,0a3.357,3.357,0,1,1,3.359-3.357A3.367,3.367,0,0,1,137.479,103.862Zm-8.958-5.595a2.238,2.238,0,1,0,2.24,2.238A2.241,2.241,0,0,0,128.521,98.267Zm0,3.357a1.119,1.119,0,1,1,1.12-1.119A1.121,1.121,0,0,1,128.521,101.624Zm8.958-3.357a2.238,2.238,0,1,0,2.239,2.238A2.241,2.241,0,0,0,137.479,98.267Zm0,3.357a1.119,1.119,0,1,1,1.12-1.119A1.121,1.121,0,0,1,137.479,101.624Zm-8.958-1.678a0.559,0.559,0,1,1-.56.559A0.56,0.56,0,0,1,128.521,99.946Zm8.958,0a0.559,0.559,0,1,1-.56.559A0.56,0.56,0,0,1,137.479,99.946Z"/>
  <path id="vk" class="cls-6" d="M184.756,101.524a22.172,22.172,0,0,1,1.561,1.639,4.828,4.828,0,0,1,.559.842,0.609,0.609,0,0,1-.353.939H184.2a1.757,1.757,0,0,1-1.478-.627c-0.321-.342-0.619-0.706-0.928-1.06a2.216,2.216,0,0,0-.417-0.387,0.476,0.476,0,0,0-.773.2,2.632,2.632,0,0,0-.245,1.131,0.629,0.629,0,0,1-.739.747,5.723,5.723,0,0,1-3.322-.746,7.483,7.483,0,0,1-2.235-2.185,29.856,29.856,0,0,1-2.941-5.476c-0.186-.432-0.05-0.663.406-0.672,0.757-.016,1.514-0.014,2.272,0a0.673,0.673,0,0,1,.631.493,14.964,14.964,0,0,0,1.54,2.981,2.52,2.52,0,0,0,.582.668,0.349,0.349,0,0,0,.6-0.184,2.187,2.187,0,0,0,.134-0.625A9.732,9.732,0,0,0,177.251,97a0.9,0.9,0,0,0-.745-0.836c-0.222-.044-0.189-0.13-0.081-0.262a0.823,0.823,0,0,1,.712-0.37h2.623a0.647,0.647,0,0,1,.562.713l0,3.043a0.9,0.9,0,0,0,.37.778,0.51,0.51,0,0,0,.524-0.268,9.479,9.479,0,0,0,1.477-2.371c0.178-.375.331-0.764,0.479-1.153a0.563,0.563,0,0,1,.593-0.424l2.525,0a1.3,1.3,0,0,1,.223.014,0.457,0.457,0,0,1,.411.7,6.658,6.658,0,0,1-1,1.818c-0.421.608-.872,1.2-1.289,1.809a0.847,0.847,0,0,0,.123,1.326h0Z"/>
  <path id="fb" class="cls-6" d="M226.174,97.238V95.871a3.025,3.025,0,0,1,.029-0.476,0.911,0.911,0,0,1,.13-0.332,0.528,0.528,0,0,1,.327-0.226,2.339,2.339,0,0,1,.6-0.062h1.366V92.041h-2.184a3.557,3.557,0,0,0-2.724.9,3.793,3.793,0,0,0-.827,2.651v1.645h-1.636V99.97h1.636V107.9h3.281V99.97h2.184l0.289-2.733h-2.473Z"/>
  <path id="check" class="cls-7" d="M157.964,8.6l2.541,2.541,5.567-5.562,1.969,1.969-5.562,5.562-1.974,1.969-1.969-1.969L156,10.569Z"/>
  <path id="i-camera" class="cls-6" d="M198.021,6.162v7.615a2.177,2.177,0,0,0,2.176,2.176H213.74a2.178,2.178,0,0,0,2.177-2.176V6.162a2.1,2.1,0,0,0-2.071-2.1h-2.9l-0.069-.3c-0.281-1.211-1.347-2.68-2.592-2.68h-2.58c-1.241,0-2.307,1.469-2.591,2.68l-0.07.3h-2.955A2.1,2.1,0,0,0,198.021,6.162Zm5.383-1.21a0.443,0.443,0,0,0,.433-0.345l0.149-.648c0.19-.8.9-1.989,1.722-1.989h2.58c0.826,0,1.533,1.185,1.722,1.989l0.149,0.648a0.447,0.447,0,0,0,.433.345h3.25a1.205,1.205,0,0,1,1.179,1.21v7.615a1.284,1.284,0,0,1-1.284,1.284H200.2a1.284,1.284,0,0,1-1.285-1.284V6.162a1.206,1.206,0,0,1,1.18-1.21H203.4ZM207,13.8a3.884,3.884,0,1,0-3.886-3.884A3.891,3.891,0,0,0,207,13.8Zm0-6.843a2.959,2.959,0,1,1-2.96,2.959A2.964,2.964,0,0,1,207,6.962Z"/>
  <path id="i-lock" class="cls-6" d="M238.031,55.552V51.7a3.514,3.514,0,0,0-3.382-3.626h-1.3a3.514,3.514,0,0,0-3.382,3.626v3.854a6.155,6.155,0,0,0-1.855,4.424,5.889,5.889,0,1,0,11.771,0A6.154,6.154,0,0,0,238.031,55.552Zm-6.938-.86V51.7a2.392,2.392,0,0,1,2.258-2.5h1.3a2.392,2.392,0,0,1,2.258,2.5v2.994q-0.231-.135-0.471-0.247l-0.017-.008-0.068-.031-0.1-.044-0.047-.02-0.151-.061h0a5.675,5.675,0,0,0-1.647-.366l-0.04,0-0.138-.007-0.046,0L234,53.9l-0.177,0-0.046,0-0.138.007-0.04,0a5.675,5.675,0,0,0-1.647.366h0l-0.151.061-0.047.02-0.1.044-0.068.031-0.017.008Q231.324,54.557,231.093,54.692ZM234,64.929a4.866,4.866,0,0,1-4.762-4.953,4.992,4.992,0,0,1,2.433-4.319l0.068-.039,0.075-.041c0.044-.024.088-0.047,0.133-0.069l0.042-.021a4.629,4.629,0,0,1,1.58-.443l0.015,0c0.065-.006.13-0.011,0.2-0.014H233.8c0.066,0,.132,0,0.2,0s0.132,0,.2,0h0.022c0.066,0,.131.008,0.2,0.014l0.015,0a4.629,4.629,0,0,1,1.58.443l0.042,0.021c0.045,0.022.089,0.046,0.133,0.069l0.075,0.041,0.068,0.039a4.992,4.992,0,0,1,2.433,4.319A4.866,4.866,0,0,1,234,64.929Zm1.658-5.868a1.658,1.658,0,1,0-2.791,1.211l-0.4,1.783a0.559,0.559,0,0,0-.014.122,0.985,0.985,0,0,0,1.11.854h0.869a0.984,0.984,0,0,0,1.109-.854,0.56,0.56,0,0,0-.014-0.122l-0.4-1.783A1.653,1.653,0,0,0,235.658,59.061Zm-2,2.847L234,60.356l0.346,1.552h-0.692Zm0.591-2.372a0.245,0.245,0,1,1-.49,0A0.534,0.534,0,1,1,234.245,59.536Z"/>
</svg>
